<?xml version="1.0" standalone="no"?>
<svg xmlns="http://www.w3.org/2000/svg" x="10" y="10" width="8.5in" height="11in" >
  <rect  x="0" y="0" width="8.5in" height="11in" stroke-width="10px" stroke="red" fill="none"/>
  <svg x="10" y="10" width="100" height="100" viewBox="0 0 1500 1000" preserveAspectRatio="none">
     <rect x="0" y="0" width="1500"  height="1000" stroke-width="10" stroke="black" fill="none" />
     <polygon fill="red" stroke="blue" stroke-width="10" 
                points="350,75  379,161 469,161 397,215
                        423,301 350,250 277,301 303,215
                        231,161 321,161" />        
  </svg>
    <svg x="110" y="10" width="100" height="100" viewBox="0 0 500 500" preserveAspectRatio="none">
    <rect x="0" y="0" width="500"  height="500" stroke-width="10" stroke="black" fill="none" />
     <polygon fill="red" stroke="blue" stroke-width="10" 
                points="350,75  379,161 469,161 397,215
                        423,301 350,250 277,301 303,215
                        231,161 321,161" />        
  </svg>
  
  <g sroke-width="3"  fill="none">
      <title> Transformer </title>
      <desc>
            A transform is comsisted of 3 circles with different color.
      </desc>
        <circle cx="20" cy="20" r="20" stroke="red" />
        <circle cx="35" cy="20" r="20" stroke="green" />
        <circle cx="27.5" cy="10" r="20" stroke="blue" />
  </g>
  
</svg>